<svg width="370" height="39" viewBox="0 0 370 39" fill="none" xmlns="http://www.w3.org/2000/svg">
<path d="M33.8507 25.4649C33.9048 25.662 33.9969 25.8465 34.1217 26.0077C34.2465 26.169 34.4016 26.3039 34.5782 26.4047C34.7547 26.5055 34.9492 26.5703 35.1506 26.5954C35.352 26.6204 35.5563 26.6053 35.7518 26.5507C35.9474 26.4962 36.1304 26.4034 36.2903 26.2776C36.4503 26.1518 36.5841 25.9954 36.6842 25.8175C36.7842 25.6395 36.8485 25.4434 36.8733 25.2404C36.8982 25.0374 36.8831 24.8315 36.829 24.6344L33.8507 25.4649ZM24.9818 3.58119C24.7854 3.52339 24.5797 3.50546 24.3764 3.52845C24.1732 3.55143 23.9765 3.61488 23.7977 3.71511C23.619 3.81533 23.4618 3.95034 23.3352 4.1123C23.2086 4.27425 23.1152 4.45993 23.0604 4.65856C23.0056 4.8572 22.9905 5.06483 23.0159 5.2694C23.0413 5.47398 23.1067 5.67143 23.2085 5.85031C23.3102 6.02918 23.4461 6.18591 23.6084 6.31141C23.7707 6.43691 23.956 6.52867 24.1538 6.58138L24.9818 3.58119ZM59.9716 26.4199C60.1727 26.3731 60.3625 26.286 60.5297 26.1639C60.6969 26.0419 60.8381 25.8872 60.945 25.7092C61.0519 25.5312 61.1224 25.3333 61.1522 25.1274C61.1819 24.9215 61.1705 24.7116 61.1184 24.5102C61.0664 24.3088 60.9748 24.12 60.8491 23.9549C60.7235 23.7898 60.5662 23.6517 60.3867 23.5489C60.2072 23.4461 60.0091 23.3806 59.8041 23.3563C59.5991 23.3319 59.3913 23.3493 59.193 23.4073L59.9716 26.4199ZM39.3933 30.2278C40.0318 32.5532 38.6312 35.0094 36.1514 35.6593L36.9279 38.6719C40.9999 37.6068 43.488 33.4771 42.3716 29.3973L39.3933 30.2278ZM36.1514 35.6593C33.6551 36.3133 31.1505 34.8516 30.5079 32.5054L27.5296 33.3359C28.6418 37.395 32.8724 39.7349 36.9279 38.6719L36.1514 35.6593ZM30.5079 32.5054C29.8694 30.18 31.27 27.7238 33.7498 27.074L32.9733 24.0634C28.9013 25.1285 26.4112 29.2561 27.5296 33.3359L30.5079 32.5054ZM33.7498 27.074C36.2461 26.4199 38.7507 27.8816 39.3933 30.2278L42.3716 29.3973C41.2594 25.3382 37.0288 22.9983 32.9733 24.0613L33.7498 27.074ZM36.829 24.6344L32.3966 8.46038L29.4183 9.29088L33.8507 25.4649L36.829 24.6344ZM28.4915 4.56118L24.9818 3.58119L24.1538 6.58138L27.6655 7.56344L28.4915 4.56118ZM32.3966 8.46038C32.1347 7.52604 31.6375 6.6759 30.9532 5.99264C30.2689 5.30938 29.4208 4.81624 28.4915 4.56118L27.6696 7.56344C28.545 7.80844 29.1959 8.47907 29.4183 9.29088L32.3966 8.46038ZM41.2738 31.3199L59.9716 26.4199L59.1951 23.4073L40.4953 28.3073L41.2738 31.3199Z" fill="white"/>
<path opacity="0.5" d="M38.0914 11.8965C37.0924 8.25268 36.594 6.42973 37.4426 4.99504C38.2891 3.55828 40.1531 3.07036 43.8811 2.09245L47.8357 1.05847C51.5637 0.0826353 53.4277 -0.40736 54.8963 0.421064C56.3648 1.25156 56.8653 3.07244 57.8622 6.71833L58.923 10.5843C59.9219 14.2281 60.4224 16.0511 59.5738 17.4878C58.7252 18.9225 56.8612 19.4125 53.1332 20.3884L49.1786 21.4244C45.4506 22.4002 43.5866 22.8882 42.1181 22.0597C40.6495 21.2292 40.1511 19.4084 39.1521 15.7646L38.0914 11.8965Z" fill="white"/>
<path d="M83.2584 16.6936H80.0144C79.9219 16.1616 79.7513 15.6904 79.5027 15.2798C79.254 14.8635 78.9447 14.5107 78.5746 14.2216C78.2045 13.9325 77.7824 13.7156 77.3082 13.5711C76.8398 13.4207 76.3339 13.3456 75.7903 13.3456C74.8247 13.3456 73.9688 13.5884 73.2229 14.0742C72.477 14.5541 71.8929 15.2596 71.4708 16.1905C71.0487 17.1157 70.8376 18.2462 70.8376 19.582C70.8376 20.9409 71.0487 22.0858 71.4708 23.0168C71.8987 23.942 72.4827 24.6416 73.2229 25.1158C73.9688 25.5842 74.8218 25.8184 75.7817 25.8184C76.3136 25.8184 76.8109 25.749 77.2735 25.6102C77.7419 25.4656 78.1611 25.2546 78.5312 24.977C78.9071 24.6995 79.2222 24.3583 79.4767 23.9535C79.7369 23.5488 79.9161 23.0862 80.0144 22.5657L83.2584 22.5831C83.137 23.4273 82.8739 24.2195 82.4691 24.9597C82.0701 25.6998 81.5468 26.3533 80.8992 26.9199C80.2515 27.4808 79.494 27.9203 78.6266 28.2384C77.7593 28.5506 76.7965 28.7067 75.7383 28.7067C74.177 28.7067 72.7834 28.3453 71.5575 27.6225C70.3317 26.8997 69.366 25.856 68.6605 24.4913C67.9551 23.1266 67.6023 21.4902 67.6023 19.582C67.6023 17.668 67.958 16.0315 68.6692 14.6726C69.3804 13.308 70.349 12.2642 71.5749 11.5414C72.8008 10.8186 74.1886 10.4572 75.7383 10.4572C76.7271 10.4572 77.6465 10.596 78.4965 10.8735C79.3466 11.1511 80.1041 11.5588 80.769 12.0965C81.434 12.6285 81.9805 13.282 82.4084 14.0568C82.8421 14.8259 83.1254 15.7048 83.2584 16.6936ZM93.1569 28.4639H89.7221L95.9758 10.7001H99.9484L106.211 28.4639H102.776L98.0315 14.343H97.8927L93.1569 28.4639ZM93.2696 21.4989H102.637V24.0836H93.2696V21.4989ZM113.436 28.4639V10.7001H120.097C121.462 10.7001 122.607 10.9372 123.532 11.4113C124.463 11.8855 125.165 12.5505 125.64 13.4063C126.119 14.2563 126.359 15.248 126.359 16.3814C126.359 17.5205 126.117 18.5093 125.631 19.3478C125.151 20.1805 124.443 20.8252 123.506 21.282C122.569 21.7331 121.418 21.9586 120.054 21.9586H115.309V19.2871H119.62C120.418 19.2871 121.071 19.1772 121.58 18.9575C122.089 18.7319 122.465 18.4052 122.708 17.9773C122.956 17.5436 123.081 17.0117 123.081 16.3814C123.081 15.7511 122.956 15.2133 122.708 14.7681C122.459 14.317 122.08 13.9759 121.572 13.7446C121.063 13.5075 120.406 13.3889 119.603 13.3889H116.654V28.4639H113.436ZM122.612 20.4146L127.01 28.4639H123.419L119.1 20.4146H122.612ZM146.107 16.3727C145.962 15.9043 145.763 15.4851 145.508 15.115C145.26 14.7391 144.959 14.4182 144.606 14.1522C144.259 13.8862 143.86 13.6867 143.409 13.5537C142.958 13.415 142.467 13.3456 141.935 13.3456C140.981 13.3456 140.131 13.5855 139.385 14.0655C138.639 14.5454 138.052 15.2509 137.624 16.1819C137.202 17.1071 136.991 18.2347 136.991 19.5646C136.991 20.9062 137.202 22.0424 137.624 22.9734C138.046 23.9044 138.633 24.6127 139.385 25.0985C140.137 25.5784 141.01 25.8184 142.004 25.8184C142.906 25.8184 143.687 25.6449 144.346 25.298C145.011 24.951 145.523 24.4595 145.881 23.8234C146.24 23.1816 146.419 22.4298 146.419 21.5683L147.148 21.681H142.325V19.1656H149.533V21.2994C149.533 22.8202 149.209 24.1357 148.562 25.2459C147.914 26.3562 147.023 27.212 145.89 27.8133C144.757 28.4089 143.456 28.7067 141.987 28.7067C140.35 28.7067 138.914 28.3395 137.676 27.6052C136.444 26.865 135.482 25.8155 134.788 24.4566C134.1 23.0919 133.756 21.4728 133.756 19.5993C133.756 18.1653 133.958 16.8844 134.363 15.7569C134.773 14.6293 135.346 13.6723 136.08 12.8859C136.814 12.0937 137.676 11.4923 138.665 11.0817C139.654 10.6654 140.729 10.4572 141.891 10.4572C142.875 10.4572 143.791 10.6018 144.641 10.8909C145.491 11.1742 146.246 11.579 146.905 12.1052C147.57 12.6314 148.116 13.2559 148.544 13.9787C148.972 14.7016 149.253 15.4995 149.386 16.3727H146.107ZM173.403 19.582C173.403 21.496 173.044 23.1353 172.327 24.5C171.616 25.8589 170.644 26.8997 169.413 27.6225C168.187 28.3453 166.796 28.7067 165.241 28.7067C163.685 28.7067 162.292 28.3453 161.06 27.6225C159.834 26.8939 158.863 25.8502 158.146 24.4913C157.434 23.1266 157.079 21.4902 157.079 19.582C157.079 17.668 157.434 16.0315 158.146 14.6726C158.863 13.308 159.834 12.2642 161.06 11.5414C162.292 10.8186 163.685 10.4572 165.241 10.4572C166.796 10.4572 168.187 10.8186 169.413 11.5414C170.644 12.2642 171.616 13.308 172.327 14.6726C173.044 16.0315 173.403 17.668 173.403 19.582ZM170.167 19.582C170.167 18.2347 169.956 17.0984 169.534 16.1732C169.118 15.2422 168.54 14.5396 167.799 14.0655C167.059 13.5855 166.206 13.3456 165.241 13.3456C164.275 13.3456 163.422 13.5855 162.682 14.0655C161.942 14.5396 161.361 15.2422 160.939 16.1732C160.522 17.0984 160.314 18.2347 160.314 19.582C160.314 20.9293 160.522 22.0684 160.939 22.9994C161.361 23.9246 161.942 24.6272 162.682 25.1071C163.422 25.5813 164.275 25.8184 165.241 25.8184C166.206 25.8184 167.059 25.5813 167.799 25.1071C168.54 24.6272 169.118 23.9246 169.534 22.9994C169.956 22.0684 170.167 20.9293 170.167 19.582ZM207.479 16.6936H204.235C204.142 16.1616 203.972 15.6904 203.723 15.2798C203.474 14.8635 203.165 14.5107 202.795 14.2216C202.425 13.9325 202.003 13.7156 201.529 13.5711C201.06 13.4207 200.554 13.3456 200.011 13.3456C199.045 13.3456 198.189 13.5884 197.443 14.0742C196.697 14.5541 196.113 15.2596 195.691 16.1905C195.269 17.1157 195.058 18.2462 195.058 19.582C195.058 20.9409 195.269 22.0858 195.691 23.0168C196.119 23.942 196.703 24.6416 197.443 25.1158C198.189 25.5842 199.042 25.8184 200.002 25.8184C200.534 25.8184 201.031 25.749 201.494 25.6102C201.962 25.4656 202.381 25.2546 202.752 24.977C203.127 24.6995 203.443 24.3583 203.697 23.9535C203.957 23.5488 204.136 23.0862 204.235 22.5657L207.479 22.5831C207.357 23.4273 207.094 24.2195 206.689 24.9597C206.29 25.6998 205.767 26.3533 205.119 26.9199C204.472 27.4808 203.714 27.9203 202.847 28.2384C201.98 28.5506 201.017 28.7067 199.959 28.7067C198.397 28.7067 197.004 28.3453 195.778 27.6225C194.552 26.8997 193.586 25.856 192.881 24.4913C192.175 23.1266 191.823 21.4902 191.823 19.582C191.823 17.668 192.178 16.0315 192.89 14.6726C193.601 13.308 194.569 12.2642 195.795 11.5414C197.021 10.8186 198.409 10.4572 199.959 10.4572C200.947 10.4572 201.867 10.596 202.717 10.8735C203.567 11.1511 204.324 11.5588 204.989 12.0965C205.654 12.6285 206.201 13.282 206.629 14.0568C207.062 14.8259 207.346 15.7048 207.479 16.6936ZM231.184 19.582C231.184 21.496 230.825 23.1353 230.108 24.5C229.397 25.8589 228.425 26.8997 227.194 27.6225C225.968 28.3453 224.577 28.7067 223.022 28.7067C221.466 28.7067 220.073 28.3453 218.841 27.6225C217.615 26.8939 216.644 25.8502 215.927 24.4913C215.215 23.1266 214.86 21.4902 214.86 19.582C214.86 17.668 215.215 16.0315 215.927 14.6726C216.644 13.308 217.615 12.2642 218.841 11.5414C220.073 10.8186 221.466 10.4572 223.022 10.4572C224.577 10.4572 225.968 10.8186 227.194 11.5414C228.425 12.2642 229.397 13.308 230.108 14.6726C230.825 16.0315 231.184 17.668 231.184 19.582ZM227.948 19.582C227.948 18.2347 227.737 17.0984 227.315 16.1732C226.899 15.2422 226.321 14.5396 225.58 14.0655C224.84 13.5855 223.987 13.3456 223.022 13.3456C222.056 13.3456 221.203 13.5855 220.463 14.0655C219.723 14.5396 219.142 15.2422 218.719 16.1732C218.303 17.0984 218.095 18.2347 218.095 19.582C218.095 20.9293 218.303 22.0684 218.719 22.9994C219.142 23.9246 219.723 24.6272 220.463 25.1071C221.203 25.5813 222.056 25.8184 223.022 25.8184C223.987 25.8184 224.84 25.5813 225.58 25.1071C226.321 24.6272 226.899 23.9246 227.315 22.9994C227.737 22.0684 227.948 20.9293 227.948 19.582ZM253.709 10.7001V28.4639H250.847L242.476 16.364H242.329V28.4639H239.111V10.7001H241.991L250.352 22.8086H250.508V10.7001H253.709ZM276.698 10.7001V28.4639H273.836L265.466 16.364H265.318V28.4639H262.1V10.7001H264.98L273.341 22.8086H273.498V10.7001H276.698ZM285.09 28.4639V10.7001H296.643V13.3976H288.307V18.2202H296.044V20.9177H288.307V25.7663H296.712V28.4639H285.09ZM320.016 16.6936H316.772C316.68 16.1616 316.509 15.6904 316.26 15.2798C316.012 14.8635 315.702 14.5107 315.332 14.2216C314.962 13.9325 314.54 13.7156 314.066 13.5711C313.597 13.4207 313.091 13.3456 312.548 13.3456C311.582 13.3456 310.726 13.5884 309.981 14.0742C309.235 14.5541 308.651 15.2596 308.228 16.1905C307.806 17.1157 307.595 18.2462 307.595 19.582C307.595 20.9409 307.806 22.0858 308.228 23.0168C308.656 23.942 309.24 24.6416 309.981 25.1158C310.726 25.5842 311.579 25.8184 312.539 25.8184C313.071 25.8184 313.569 25.749 314.031 25.6102C314.5 25.4656 314.919 25.2546 315.289 24.977C315.665 24.6995 315.98 24.3583 316.234 23.9535C316.494 23.5488 316.674 23.0862 316.772 22.5657L320.016 22.5831C319.895 23.4273 319.631 24.2195 319.227 24.9597C318.828 25.6998 318.304 26.3533 317.657 26.9199C317.009 27.4808 316.252 27.9203 315.384 28.2384C314.517 28.5506 313.554 28.7067 312.496 28.7067C310.935 28.7067 309.541 28.3453 308.315 27.6225C307.089 26.8997 306.124 25.856 305.418 24.4913C304.713 23.1266 304.36 21.4902 304.36 19.582C304.36 17.668 304.716 16.0315 305.427 14.6726C306.138 13.308 307.107 12.2642 308.333 11.5414C309.558 10.8186 310.946 10.4572 312.496 10.4572C313.485 10.4572 314.404 10.596 315.254 10.8735C316.104 11.1511 316.862 11.5588 317.527 12.0965C318.192 12.6285 318.738 13.282 319.166 14.0568C319.6 14.8259 319.883 15.7048 320.016 16.6936ZM327.067 13.3976V10.7001H341.24V13.3976H335.75V28.4639H332.558V13.3976H327.067Z" fill="white"/>
</svg>
